ffmpeg version 3.4.4-0ubuntu0.18.04.1 Copyright (c) 2000-2018 the FFmpeg developers
  built with gcc 7 (Ubuntu 7.3.0-16ubuntu3)
  configuration: --prefix=/usr --extra-version=0ubuntu0.18.04.1 --toolchain=hardened --libdir=/usr/lib/x86_64-linux-gnu --incdir=/usr/include/x86_64-linux-gnu --enable-gpl --disable-stripping --enable-avresample --enable-avisynth --enable-gnutls --enable-ladspa --enable-libass --enable-libbluray --enable-libbs2b --enable-libcaca --enable-libcdio --enable-libflite --enable-libfontconfig --enable-libfreetype --enable-libfribidi --enable-libgme --enable-libgsm --enable-libmp3lame --enable-libmysofa --enable-libopenjpeg --enable-libopenmpt --enable-libopus --enable-libpulse --enable-librubberband --enable-librsvg --enable-libshine --enable-libsnappy --enable-libsoxr --enable-libspeex --enable-libssh --enable-libtheora --enable-libtwolame --enable-libvorbis --enable-libvpx --enable-libwavpack --enable-libwebp --enable-libx265 --enable-libxml2 --enable-libxvid --enable-libzmq --enable-libzvbi --enable-omx --enable-openal --enable-opengl --enable-sdl2 --enable-libdc1394 --enable-libdrm --enable-libiec61883 --enable-chromaprint --enable-frei0r --enable-libopencv --enable-libx264 --enable-shared
  WARNING: library configuration mismatch
  avcodec     configuration: --prefix=/usr --extra-version=0ubuntu0.18.04.1 --toolchain=hardened --libdir=/usr/lib/x86_64-linux-gnu --incdir=/usr/include/x86_64-linux-gnu --enable-gpl --disable-stripping --enable-avresample --enable-avisynth --enable-gnutls --enable-ladspa --enable-libass --enable-libbluray --enable-libbs2b --enable-libcaca --enable-libcdio --enable-libflite --enable-libfontconfig --enable-libfreetype --enable-libfribidi --enable-libgme --enable-libgsm --enable-libmp3lame --enable-libmysofa --enable-libopenjpeg --enable-libopenmpt --enable-libopus --enable-libpulse --enable-librubberband --enable-librsvg --enable-libshine --enable-libsnappy --enable-libsoxr --enable-libspeex --enable-libssh --enable-libtheora --enable-libtwolame --enable-libvorbis --enable-libvpx --enable-libwavpack --enable-libwebp --enable-libx265 --enable-libxml2 --enable-libxvid --enable-libzmq --enable-libzvbi --enable-omx --enable-openal --enable-opengl --enable-sdl2 --enable-libdc1394 --enable-libdrm --enable-libiec61883 --enable-chromaprint --enable-frei0r --enable-libopencv --enable-libx264 --enable-shared --enable-version3 --disable-doc --disable-programs --enable-libopencore_amrnb --enable-libopencore_amrwb --enable-libtesseract --enable-libvo_amrwbenc
  libavutil      55. 78.100 / 55. 78.100
  libavcodec     57.107.100 / 57.107.100
  libavformat    57. 83.100 / 57. 83.100
  libavdevice    57. 10.100 / 57. 10.100
  libavfilter     6.107.100 /  6.107.100
  libavresample   3.  7.  0 /  3.  7.  0
  libswscale      4.  8.100 /  4.  8.100
  libswresample   2.  9.100 /  2.  9.100
  libpostproc    54.  7.100 / 54.  7.100
Input #0, rawvideo, from 'pipe:':
  Duration: N/A, start: 0.000000, bitrate: 1492992 kb/s
    Stream #0:0: Video: rawvideo (RGB[24] / 0x18424752), rgb24, 1920x1080, 1492992 kb/s, 30 tbr, 30 tbn, 30 tbc
Stream mapping:
  Stream #0:0 -> #0:0 (rawvideo (native) -> h264 (libx264))
<<<<<<< HEAD
[libx264 @ 0x559688c8dd20] using cpu capabilities: MMX2 SSE2Fast SSSE3 SSE4.2 AVX FMA3 BMI2 AVX2
[libx264 @ 0x559688c8dd20] profile High, level 4.0
[libx264 @ 0x559688c8dd20] 264 - core 152 r2854 e9a5903 - H.264/MPEG-4 AVC codec - Copyleft 2003-2017 - http://www.videolan.org/x264.html - options: cabac=1 ref=3 deblock=1:0:0 analyse=0x3:0x113 me=hex subme=7 psy=1 psy_rd=1.00:0.00 mixed_ref=1 me_range=16 chroma_me=1 trellis=1 8x8dct=1 cqm=0 deadzone=21,11 fast_pskip=1 chroma_qp_offset=-2 threads=18 lookahead_threads=3 sliced_threads=0 nr=0 decimate=1 interlaced=0 bluray_compat=0 constrained_intra=0 bframes=3 b_pyramid=2 b_adapt=1 b_bias=0 direct=1 weightb=1 open_gop=0 weightp=2 keyint=250 keyint_min=25 scenecut=40 intra_refresh=0 rc_lookahead=40 rc=crf mbtree=1 crf=15.0 qcomp=0.60 qpmin=0 qpmax=69 qpstep=4 ip_ratio=1.40 aq=1:1.00
=======
[libx264 @ 0x55f66d472d20] using cpu capabilities: MMX2 SSE2Fast SSSE3 SSE4.2 AVX FMA3 BMI2 AVX2
[libx264 @ 0x55f66d472d20] profile High, level 4.0
[libx264 @ 0x55f66d472d20] 264 - core 152 r2854 e9a5903 - H.264/MPEG-4 AVC codec - Copyleft 2003-2017 - http://www.videolan.org/x264.html - options: cabac=1 ref=3 deblock=1:0:0 analyse=0x3:0x113 me=hex subme=7 psy=1 psy_rd=1.00:0.00 mixed_ref=1 me_range=16 chroma_me=1 trellis=1 8x8dct=1 cqm=0 deadzone=21,11 fast_pskip=1 chroma_qp_offset=-2 threads=18 lookahead_threads=3 sliced_threads=0 nr=0 decimate=1 interlaced=0 bluray_compat=0 constrained_intra=0 bframes=3 b_pyramid=2 b_adapt=1 b_bias=0 direct=1 weightb=1 open_gop=0 weightp=2 keyint=250 keyint_min=25 scenecut=40 intra_refresh=0 rc_lookahead=40 rc=crf mbtree=1 crf=25.0 qcomp=0.60 qpmin=0 qpmax=69 qpstep=4 ip_ratio=1.40 aq=1:1.00
>>>>>>> e80a46b8e6a6127897287ae6451a2f0aa3e58167
Output #0, mp4, to '/dataB/PROJET_2019/randomStephania/dustVideo_v1/export.mp4':
  Metadata:
    comment         : Made with Video Export for Processing - https://git.io/vAXLk
    encoder         : Lavf57.83.100
    Stream #0:0: Video: h264 (libx264) (avc1 / 0x31637661), yuv420p, 1920x1080, q=-1--1, 30 fps, 15360 tbn, 30 tbc
    Metadata:
      encoder         : Lavc57.107.100 libx264
    Side data:
      cpb: bitrate max/min/avg: 0/0/0 buffer size: 0 vbv_delay: -1
<<<<<<< HEAD
frame=   18 fps=0.0 q=0.0 size=       0kB time=00:00:00.00 bitrate=N/A speed=   0x    frame=   34 fps= 32 q=0.0 size=       0kB time=00:00:00.00 bitrate=N/A speed=   0x    frame=   50 fps= 32 q=0.0 size=       0kB time=00:00:00.00 bitrate=N/A speed=   0x    frame=   64 fps= 31 q=21.0 size=       0kB time=-00:00:00.03 bitrate=N/A speed=N/A    frame=   80 fps= 31 q=21.0 size=       0kB time=00:00:00.50 bitrate=   0.8kbits/s speed=0.192x    frame=   96 fps= 31 q=21.0 size=       0kB time=00:00:01.03 bitrate=   0.4kbits/s speed=0.329x    frame=  112 fps= 31 q=21.0 size=       0kB time=00:00:01.56 bitrate=   0.2kbits/s speed=0.427x    frame=  128 fps= 30 q=21.0 size=       0kB time=00:00:02.10 bitrate=   0.2kbits/s speed= 0.5x    frame=  144 fps= 30 q=21.0 size=       0kB time=00:00:02.63 bitrate=   0.1kbits/s speed=0.557x    frame=  160 fps= 30 q=21.0 size=       0kB time=00:00:03.16 bitrate=   0.1kbits/s speed=0.603x    frame=  175 fps= 30 q=21.0 size=       0kB time=00:00:03.66 bitrate=   0.1kbits/s speed=0.637x    frame=  191 fps= 30 q=21.0 size=     512kB time=00:00:04.20 bitrate= 998.7kbits/s speed=0.668x    frame=  207 fps= 30 q=21.0 size=     768kB time=00:00:04.73 bitrate=1329.2kbits/s speed=0.694x    frame=  223 fps= 30 q=21.0 size=    1280kB time=00:00:05.26 bitrate=1991.0kbits/s speed=0.716x    frame=  239 fps= 30 q=21.0 size=    1536kB time=00:00:05.80 bitrate=2169.5kbits/s speed=0.736x    frame=  255 fps= 30 q=21.0 size=    2048kB time=00:00:06.33 bitrate=2649.1kbits/s speed=0.753x    frame=  271 fps= 30 q=21.0 size=    2304kB time=00:00:06.86 bitrate=2748.7kbits/s speed=0.768x    frame=  287 fps= 30 q=21.0 size=    2816kB time=00:00:07.40 bitrate=3117.4kbits/s speed=0.78x    frame=  301 fps= 30 q=21.0 size=    3328kB time=00:00:07.86 bitrate=3465.7kbits/s speed=0.785x    frame=  316 fps= 30 q=21.0 size=    3840kB time=00:00:08.36 bitrate=3759.9kbits/s speed=0.795x    frame=  331 fps= 30 q=21.0 size=    3840kB time=00:00:08.86 bitrate=3547.8kbits/s speed=0.801x    frame=  345 fps= 30 q=21.0 size=    3840kB time=00:00:09.33 bitrate=3370.4kbits/s speed=0.806x    frame=  359 fps= 30 q=21.0 size=    4608kB time=00:00:09.80 bitrate=3851.9kbits/s speed=0.81x    frame=  373 fps= 30 q=21.0 size=    5120kB time=00:00:10.26 bitrate=4085.4kbits/s speed=0.814x    frame=  387 fps= 29 q=21.0 size=    5632kB time=00:00:10.73 bitrate=4298.5kbits/s speed=0.817x    frame=  402 fps= 29 q=21.0 size=    6144kB time=00:00:11.23 bitrate=4480.6kbits/s speed=0.822x    frame=  415 fps= 29 q=21.0 size=    6912kB time=00:00:11.66 bitrate=4853.4kbits/s speed=0.822x    frame=  428 fps= 29 q=21.0 size=    8192kB time=00:00:12.10 bitrate=5546.2kbits/s speed=0.823x    frame=  443 fps= 29 q=21.0 size=    9472kB time=00:00:12.60 bitrate=6158.3kbits/s speed=0.828x    frame=  459 fps= 29 q=21.0 size=   11008kB time=00:00:13.13 bitrate=6866.3kbits/s speed=0.834x    frame=  474 fps= 29 q=18.0 size=   12544kB time=00:00:13.63 bitrate=7537.4kbits/s speed=0.839x    frame=  490 fps= 29 q=21.0 size=   14080kB time=00:00:14.16 bitrate=8141.9kbits/s speed=0.845x    frame=  506 fps= 29 q=21.0 size=   15872kB time=00:00:14.70 bitrate=8845.1kbits/s speed=0.85x    frame=  522 fps= 29 q=21.0 size=   16640kB time=00:00:15.23 bitrate=8948.4kbits/s speed=0.855x    frame=  538 fps= 29 q=21.0 size=   17408kB time=00:00:15.76 bitrate=9044.8kbits/s speed=0.859x    frame=  554 fps= 29 q=21.0 size=   18432kB time=00:00:16.30 bitrate=9263.5kbits/s speed=0.863x    frame=  570 fps= 29 q=21.0 size=   19200kB time=00:00:16.83 bitrate=9343.7kbits/s speed=0.867x    frame=  586 fps= 29 q=21.0 size=   19968kB time=00:00:17.36 bitrate=9419.1kbits/s speed=0.871x    frame=  602 fps= 29 q=21.0 size=   20480kB time=00:00:17.90 bitrate=9372.7kbits/s speed=0.874x    frame=  618 fps= 29 q=21.0 size=   20992kB time=00:00:18.43 bitrate=9329.1kbits/s speed=0.878x    frame=  634 fps= 29 q=21.0 size=   21248kB time=00:00:18.96 bitrate=9177.3kbits/s speed=0.881x    frame=  650 fps= 29 q=21.0 size=   21760kB time=00:00:19.50 bitrate=9141.4kbits/s speed=0.884x    frame=  665 fps= 29 q=21.0 size=   22016kB time=00:00:20.00 bitrate=9017.7kbits/s speed=0.887x    frame=  678 fps= 29 q=21.0 size=   22272kB time=00:00:20.43 bitrate=8929.1kbits/s speed=0.885x    frame=  690 fps= 29 q=21.0 size=   22528kB time=00:00:20.83 bitrate=8858.4kbits/s speed=0.883x    frame=  702 fps= 29 q=21.0 size=   22784kB time=00:00:21.23 bitrate=8790.3kbits/s speed=0.88x    frame=  715 fps= 29 q=21.0 size=   23296kB time=00:00:21.66 bitrate=8808.0kbits/s speed=0.878x    frame=  726 fps= 29 q=21.0 size=   23552kB time=00:00:22.03 bitrate=8756.6kbits/s speed=0.875x    frame=  739 fps= 29 q=21.0 size=   24320kB time=00:00:22.46 bitrate=8867.8kbits/s speed=0.873x    frame=  751 fps= 29 q=21.0 size=   25088kB time=00:00:22.86 bitrate=8987.8kbits/s speed=0.871x    frame=  763 fps= 28 q=21.0 size=   25856kB time=00:00:23.26 bitrate=9103.7kbits/s speed=0.868x    frame=  776 fps= 28 q=21.0 size=   26368kB time=00:00:23.70 bitrate=9114.2kbits/s speed=0.867x    frame=  788 fps= 28 q=21.0 size=   26880kB time=00:00:24.10 bitrate=9137.0kbits/s speed=0.866x    frame=  800 fps= 28 q=21.0 size=   27392kB time=00:00:24.50 bitrate=9159.0kbits/s speed=0.863x    frame=  812 fps= 28 q=21.0 size=   27904kB time=00:00:24.90 bitrate=9180.3kbits/s speed=0.861x    frame=  824 fps= 28 q=21.0 size=   28416kB time=00:00:25.30 bitrate=9200.9kbits/s speed=0.86x    frame=  840 fps= 28 q=21.0 size=   29184kB time=00:00:25.83 bitrate=9254.5kbits/s speed=0.863x    frame=  856 fps= 28 q=21.0 size=   29952kB time=00:00:26.36 bitrate=9305.9kbits/s speed=0.865x    frame=  872 fps= 28 q=21.0 size=   30720kB time=00:00:26.90 bitrate=9355.3kbits/s speed=0.868x    frame=  888 fps= 28 q=21.0 size=   31232kB time=00:00:27.43 bitrate=9326.3kbits/s speed=0.87x    frame=  904 fps= 28 q=21.0 size=   31232kB time=00:00:27.96 bitrate=9148.5kbits/s speed=0.872x    frame=  920 fps= 28 q=21.0 size=   31232kB time=00:00:28.50 bitrate=8977.3kbits/s speed=0.875x    frame=  936 fps= 28 q=21.0 size=   31232kB time=00:00:29.03 bitrate=8812.4kbits/s speed=0.877x    frame=  952 fps= 28 q=21.0 size=   31232kB time=00:00:29.56 bitrate=8653.4kbits/s speed=0.879x    frame=  968 fps= 28 q=21.0 size=   31232kB time=00:00:30.10 bitrate=8500.1kbits/s speed=0.881x    frame=  983 fps= 28 q=21.0 size=   31488kB time=00:00:30.60 bitrate=8429.7kbits/s speed=0.883x    frame=  999 fps= 28 q=21.0 size=   32000kB time=00:00:31.13 bitrate=8420.0kbits/s speed=0.885x    frame= 1015 fps= 28 q=21.0 size=   32256kB time=00:00:31.66 bitrate=8344.5kbits/s speed=0.886x    frame= 1030 fps= 28 q=21.0 size=   32512kB time=00:00:32.16 bitrate=8279.9kbits/s speed=0.887x    frame= 1042 fps= 28 q=21.0 size=   33024kB time=00:00:32.56 bitrate=8307.0kbits/s speed=0.885x    frame= 1054 fps= 28 q=21.0 size=   33536kB time=00:00:32.96 bitrate=8333.5kbits/s speed=0.882x    frame= 1066 fps= 28 q=21.0 size=   33792kB time=00:00:33.36 bitrate=8296.4kbits/s speed=0.88x    frame= 1080 fps= 28 q=21.0 size=   34560kB time=00:00:33.83 bitrate=8367.9kbits/s speed=0.881x    frame= 1094 fps= 28 q=21.0 size=   35328kB time=00:00:34.30 bitrate=8437.5kbits/s speed=0.881x    frame= 1107 fps= 28 q=21.0 size=   36352kB time=00:00:34.73 bitrate=8573.8kbits/s speed=0.881x    frame= 1122 fps= 28 q=21.0 size=   37632kB time=00:00:35.23 bitrate=8749.7kbits/s speed=0.882x    frame= 1138 fps= 28 q=21.0 size=   38400kB time=00:00:35.76 bitrate=8795.1kbits/s speed=0.884x    frame= 1153 fps= 28 q=21.0 size=   38656kB time=00:00:36.26 bitrate=8731.7kbits/s speed=0.885x    frame= 1169 fps= 28 q=21.0 size=   39680kB time=00:00:36.80 bitrate=8833.1kbits/s speed=0.887x    frame= 1184 fps= 28 q=21.0 size=   40448kB time=00:00:37.30 bitrate=8883.4kbits/s speed=0.888x    frame= 1200 fps= 28 q=21.0 size=   40960kB time=00:00:37.83 bitrate=8869.0kbits/s speed=0.89x    frame= 1216 fps= 28 q=21.0 size=   41472kB time=00:00:38.36 bitrate=8855.0kbits/s speed=0.891x    frame= 1231 fps= 28 q=21.0 size=   41728kB time=00:00:38.86 bitrate=8795.1kbits/s speed=0.892x    frame= 1247 fps= 28 q=21.0 size=   42496kB time=00:00:39.40 bitrate=8835.7kbits/s speed=0.894x    frame= 1262 fps= 28 q=21.0 size=   43008kB time=00:00:39.90 bitrate=8830.1kbits/s speed=0.895x    frame= 1274 fps= 28 q=21.0 size=   43520kB time=00:00:40.30 bitrate=8846.5kbits/s speed=0.893x    frame= 1286 fps= 28 q=21.0 size=   43776kB time=00:00:40.70 bitrate=8811.1kbits/s speed=0.892x    frame= 1298 fps= 28 q=21.0 size=   44032kB time=00:00:41.10 bitrate=8776.4kbits/s speed=0.891x    frame= 1314 fps= 28 q=21.0 size=   44288kB time=00:00:41.63 bitrate=8714.3kbits/s speed=0.892x    frame= 1329 fps= 28 q=21.0 size=   45312kB time=00:00:42.13 bitrate=8810.0kbits/s speed=0.893x    frame= 1343 fps= 28 q=18.0 size=   46592kB time=00:00:42.60 bitrate=8959.7kbits/s speed=0.894x    frame= 1359 fps= 28 q=21.0 size=   48128kB time=00:00:43.13 bitrate=9140.6kbits/s speed=0.895x    frame= 1374 fps= 28 q=21.0 size=   49664kB time=00:00:43.63 bitrate=9324.2kbits/s speed=0.896x    frame= 1390 fps= 28 q=21.0 size=   50432kB time=00:00:44.16 bitrate=9354.1kbits/s speed=0.898x    frame= 1406 fps= 28 q=21.0 size=   51200kB time=00:00:44.70 bitrate=9383.2kbits/s speed=0.899x    frame= 1421 fps= 28 q=21.0 size=   51968kB time=00:00:45.20 bitrate=9418.6kbits/s speed= 0.9x    frame= 1437 fps= 28 q=21.0 size=   52736kB time=00:00:45.73 bitrate=9446.4kbits/s speed=0.901x    frame= 1453 fps= 28 q=21.0 size=   55040kB time=00:00:46.26 bitrate=9745.4kbits/s speed=0.902x    frame= 1465 fps= 28 q=21.0 size=   55808kB time=00:00:46.66 bitrate=9796.7kbits/s speed= 0.9x    frame= 1477 fps= 28 q=21.0 size=   56320kB time=00:00:47.06 bitrate=9802.5kbits/s speed=0.899x    frame= 1492 fps= 28 q=21.0 size=   56832kB time=00:00:47.56 bitrate=9787.7kbits/s speed=0.899x    frame= 1508 fps= 28 q=21.0 size=   57344kB time=00:00:48.10 bitrate=9766.4kbits/s speed= 0.9x    frame= 1523 fps= 28 q=21.0 size=   58624kB time=00:00:48.60 bitrate=9881.6kbits/s speed=0.901x    frame= 1538 fps= 28 q=21.0 size=   60416kB time=00:00:49.10 bitrate=10080.0kbits/s speed=0.902x    frame= 1554 fps= 28 q=21.0 size=   61440kB time=00:00:49.63 bitrate=10140.7kbits/s speed=0.903x    frame= 1570 fps= 28 q=21.0 size=   61952kB time=00:00:50.16 bitrate=10116.5kbits/s speed=0.904x    frame= 1586 fps= 28 q=21.0 size=   62208kB time=00:00:50.70 bitrate=10051.4kbits/s speed=0.905x    frame= 1602 fps= 28 q=21.0 size=   62208kB time=00:00:51.23 bitrate=9946.8kbits/s speed=0.906x    frame= 1618 fps= 28 q=21.0 size=   63488kB time=00:00:51.76 bitrate=10046.9kbits/s speed=0.907x    frame= 1629 fps= 28 q=21.0 size=   64000kB time=00:00:52.13 bitrate=10056.7kbits/s speed=0.905x    frame= 1639 fps= 28 q=21.0 size=   64512kB time=00:00:52.46 bitrate=10072.7kbits/s speed=0.903x    frame= 1649 fps= 28 q=21.0 size=   65280kB time=00:00:52.80 bitrate=10128.3kbits/s speed=0.901x    frame= 1661 fps= 28 q=21.0 size=   65536kB time=00:00:53.20 bitrate=10091.6kbits/s speed= 0.9x    frame= 1675 fps= 28 q=21.0 size=   66048kB time=00:00:53.66 bitrate=10082.0kbits/s speed= 0.9x    frame= 1688 fps= 28 q=21.0 size=   66304kB time=00:00:54.10 bitrate=10040.0kbits/s speed= 0.9x    frame= 1704 fps= 28 q=21.0 size=   67072kB time=00:00:54.63 bitrate=10057.1kbits/s speed=0.901x    frame= 1720 fps= 28 q=21.0 size=   67840kB time=00:00:55.16 bitrate=10073.9kbits/s speed=0.901x    frame= 1736 fps= 28 q=21.0 size=   68352kB time=00:00:55.70 bitrate=10052.8kbits/s speed=0.903x    frame= 1751 fps= 28 q=21.0 size=   69632kB time=00:00:56.20 bitrate=10149.9kbits/s speed=0.903x    frame= 1767 fps= 28 q=21.0 size=   70400kB time=00:00:56.73 bitrate=10165.4kbits/s speed=0.904x    frame= 1782 fps= 28 q=21.0 size=   71936kB time=00:00:57.23 bitrate=10296.4kbits/s speed=0.905x    frame= 1798 fps= 28 q=21.0 size=   72960kB time=00:00:57.76 bitrate=10346.6kbits/s speed=0.906x    frame= 1814 fps= 28 q=21.0 size=   74240kB time=00:00:58.30 bitrate=10431.8kbits/s speed=0.907x    frame= 1829 fps= 28 q=21.0 size=   76032kB time=00:00:58.80 bitrate=10592.8kbits/s speed=0.907x    frame= 1845 fps= 28 q=21.0 size=   77312kB time=00:00:59.33 bitrate=10674.3kbits/s speed=0.908x    frame= 1860 fps= 28 q=21.0 size=   77568kB time=00:00:59.83 bitrate=10620.1kbits/s speed=0.909x    frame= 1876 fps= 28 q=21.0 size=   77824kB time=00:01:00.36 bitrate=10561.0kbits/s speed=0.91x    frame= 1891 fps= 28 q=21.0 size=   78080kB time=00:01:00.86 bitrate=10508.7kbits/s speed=0.911x    frame= 1907 fps= 28 q=21.0 size=   78592kB time=00:01:01.40 bitrate=10485.8kbits/s speed=0.911x    frame= 1923 fps= 28 q=21.0 size=   79104kB time=00:01:01.93 bitrate=10463.2kbits/s speed=0.912x    frame= 1939 fps= 28 q=21.0 size=   79360kB time=00:01:02.46 bitrate=10407.4kbits/s speed=0.913x    frame= 1955 fps= 28 q=21.0 size=   79360kB time=00:01:03.00 bitrate=10319.3kbits/s speed=0.914x    frame= 1971 fps= 28 q=21.0 size=   79360kB time=00:01:03.53 bitrate=10232.7kbits/s speed=0.914x    frame= 1986 fps= 28 q=21.0 size=   79616kB time=00:01:04.03 bitrate=10185.5kbits/s speed=0.915x    frame= 2001 fps= 28 q=21.0 size=   80128kB time=00:01:04.53 bitrate=10171.6kbits/s speed=0.915x    frame= 2015 fps= 28 q=21.0 size=   80128kB time=00:01:05.00 bitrate=10098.6kbits/s speed=0.915x    frame= 2030 fps= 28 q=21.0 size=   80384kB time=00:01:05.50 bitrate=10053.5kbits/s speed=0.916x    frame= 2046 fps= 28 q=21.0 size=   81920kB time=00:01:06.03 bitrate=10162.9kbits/s speed=0.916x    frame= 2061 fps= 28 q=21.0 size=   82688kB time=00:01:06.53 bitrate=10181.1kbits/s speed=0.917x    frame= 2077 fps= 28 q=21.0 size=   83456kB time=00:01:07.06 bitrate=10193.9kbits/s speed=0.918x    frame= 2092 fps= 28 q=21.0 size=   83968kB time=00:01:07.56 bitrate=10180.5kbits/s speed=0.918x    frame= 2108 fps= 28 q=21.0 size=   84480kB time=00:01:08.10 bitrate=10162.4kbits/s speed=0.919x    frame= 2123 fps= 28 q=21.0 size=   84736kB time=00:01:08.60 bitrate=10118.9kbits/s speed=0.919x    frame= 2139 fps= 28 q=21.0 size=   85248kB time=00:01:09.13 bitrate=10101.5kbits/s speed=0.92x    frame= 2155 fps= 28 q=21.0 size=   85504kB time=00:01:09.66 bitrate=10054.3kbits/s speed=0.921x    frame= 2170 fps= 28 q=21.0 size=   85760kB time=00:01:10.16 bitrate=10012.5kbits/s speed=0.921x    frame= 2186 fps= 29 q=21.0 size=   86272kB time=00:01:10.70 bitrate=9996.3kbits/s speed=0.922x    frame= 2201 fps= 29 q=21.0 size=   86528kB time=00:01:11.20 bitrate=9955.6kbits/s speed=0.922x    frame= 2216 fps= 29 q=21.0 size=   87040kB time=00:01:11.70 bitrate=9944.7kbits/s speed=0.922x    frame= 2231 fps= 29 q=21.0 size=   87296kB time=00:01:12.20 bitrate=9904.8kbits/s speed=0.923x    frame= 2246 fps= 29 q=21.0 size=   88576kB time=00:01:12.70 bitrate=9980.9kbits/s speed=0.923x    frame= 2261 fps= 29 q=21.0 size=   89088kB time=00:01:13.20 bitrate=9970.1kbits/s speed=0.924x    frame= 2277 fps= 29 q=21.0 size=   89600kB time=00:01:13.73 bitrate=9954.8kbits/s speed=0.924x    frame= 2292 fps= 29 q=21.0 size=   89856kB time=00:01:14.23 bitrate=9916.0kbits/s speed=0.925x    frame= 2307 fps= 29 q=21.0 size=   90368kB time=00:01:14.73 bitrate=9905.8kbits/s speed=0.925x    frame= 2321 fps= 29 q=21.0 size=   90624kB time=00:01:15.20 bitrate=9872.2kbits/s speed=0.925x    frame= 2334 fps= 29 q=21.0 size=   90880kB time=00:01:15.63 bitrate=9843.4kbits/s speed=0.924x    frame= 2348 fps= 29 q=21.0 size=   91136kB time=00:01:16.10 bitrate=9810.6kbits/s speed=0.924x    frame= 2363 fps= 29 q=21.0 size=   91392kB time=00:01:16.60 bitrate=9773.9kbits/s speed=0.925x    frame= 2379 fps= 29 q=21.0 size=   91904kB time=00:01:17.13 bitrate=9760.7kbits/s speed=0.925x    frame= 2395 fps= 29 q=21.0 size=   92416kB time=00:01:17.66 bitrate=9747.7kbits/s speed=0.926x    frame= 2411 fps= 29 q=21.0 size=   92672kB time=00:01:18.20 bitrate=9708.0kbits/s speed=0.926x    frame= 2426 fps= 29 q=21.0 size=   93952kB time=00:01:18.70 bitrate=9779.6kbits/s speed=0.927x    frame= 2441 fps= 29 q=21.0 size=   94464kB time=00:01:19.20 bitrate=9770.8kbits/s speed=0.927x    frame= 2457 fps= 29 q=21.0 size=   94976kB time=00:01:19.73 bitrate=9758.1kbits/s speed=0.928x    frame= 2472 fps= 29 q=21.0 size=   94976kB time=00:01:20.23 bitrate=9697.3kbits/s speed=0.928x    frame= 2488 fps= 29 q=21.0 size=   95232kB time=00:01:20.76 bitrate=9659.2kbits/s speed=0.929x    frame= 2503 fps= 29 q=21.0 size=   95232kB time=00:01:21.26 bitrate=9599.8kbits/s speed=0.929x    frame= 2518 fps= 29 q=21.0 size=   95232kB time=00:01:21.76 bitrate=9541.1kbits/s speed=0.929x    frame= 2533 fps= 29 q=21.0 size=   95744kB time=00:01:22.26 bitrate=9534.1kbits/s speed=0.93x    frame= 2548 fps= 29 q=21.0 size=   97024kB time=00:01:22.76 bitrate=9603.1kbits/s speed=0.93x    frame= 2564 fps= 29 q=21.0 size=   98048kB time=00:01:23.30 bitrate=9642.4kbits/s speed=0.93x    frame= 2579 fps= 29 q=21.0 size=   98816kB time=00:01:23.80 bitrate=9659.9kbits/s speed=0.931x    frame= 2595 fps= 29 q=21.0 size=   99328kB time=00:01:24.33 bitrate=9648.6kbits/s speed=0.931x    frame= 2611 fps= 29 q=21.0 size=   99840kB time=00:01:24.86 bitrate=9637.3kbits/s speed=0.932x    frame= 2627 fps= 29 q=21.0 size=  100352kB time=00:01:25.40 bitrate=9626.3kbits/s speed=0.932x    frame= 2643 fps= 29 q=21.0 size=  101376kB time=00:01:25.93 bitrate=9664.1kbits/s speed=0.933x    frame= 2658 fps= 29 q=21.0 size=  102144kB time=00:01:26.43 bitrate=9681.0kbits/s speed=0.933x    frame= 2674 fps= 29 q=21.0 size=  103168kB time=00:01:26.96 bitrate=9718.1kbits/s speed=0.933x    frame= 2690 fps= 29 q=21.0 size=  103936kB time=00:01:27.50 bitrate=9730.8kbits/s speed=0.934x    frame= 2706 fps= 29 q=21.0 size=  104448kB time=00:01:28.03 bitrate=9719.5kbits/s speed=0.934x    frame= 2721 fps= 29 q=21.0 size=  105472kB time=00:01:28.53 bitrate=9759.3kbits/s speed=0.935x    frame= 2737 fps= 29 q=21.0 size=  106240kB time=00:01:29.06 bitrate=9771.5kbits/s speed=0.935x    frame= 2753 fps= 29 q=21.0 size=  106240kB time=00:01:29.60 bitrate=9713.4kbits/s speed=0.935x    frame= 2769 fps= 29 q=21.0 size=  106240kB time=00:01:30.13 bitrate=9655.9kbits/s speed=0.936x    frame= 2785 fps= 29 q=21.0 size=  106240kB time=00:01:30.66 bitrate=9599.1kbits/s speed=0.936x    frame= 2800 fps= 29 q=21.0 size=  107008kB time=00:01:31.16 bitrate=9615.5kbits/s speed=0.936x    frame= 2816 fps= 29 q=21.0 size=  107520kB time=00:01:31.70 bitrate=9605.3kbits/s speed=0.937x    frame= 2832 fps= 29 q=21.0 size=  108288kB time=00:01:32.23 bitrate=9617.9kbits/s speed=0.937x    frame= 2848 fps= 29 q=21.0 size=  108800kB time=00:01:32.76 bitrate=9607.9kbits/s speed=0.938x    frame= 2863 fps= 29 q=21.0 size=  109312kB time=00:01:33.26 bitrate=9601.3kbits/s speed=0.938x    frame= 2879 fps= 29 q=21.0 size=  109568kB time=00:01:33.80 bitrate=9569.1kbits/s speed=0.938x    frame= 2895 fps= 29 q=21.0 size=  110080kB time=00:01:34.33 bitrate=9559.5kbits/s speed=0.939x    frame= 2910 fps= 29 q=21.0 size=  110592kB time=00:01:34.83 bitrate=9553.3kbits/s speed=0.939x    frame= 2926 fps= 29 q=21.0 size=  110848kB time=00:01:35.36 bitrate=9521.8kbits/s speed=0.939x    frame= 2941 fps= 29 q=21.0 size=  110848kB time=00:01:35.86 bitrate=9472.2kbits/s speed=0.94x    frame= 2957 fps= 29 q=21.0 size=  110848kB time=00:01:36.40 bitrate=9419.8kbits/s speed=0.94x    frame= 2973 fps= 29 q=21.0 size=  110848kB time=00:01:36.93 bitrate=9367.9kbits/s speed=0.94x    frame= 2988 fps= 29 q=21.0 size=  112384kB time=00:01:37.43 bitrate=9449.0kbits/s speed=0.941x    frame= 3003 fps= 29 q=21.0 size=  113408kB time=00:01:37.93 bitrate=9486.4kbits/s speed=0.941x    frame= 3015 fps= 29 q=21.0 size=  114176kB time=00:01:38.33 bitrate=9511.8kbits/s speed=0.94x    frame= 3028 fps= 29 q=21.0 size=  114944kB time=00:01:38.76 bitrate=9533.8kbits/s speed=0.939x    frame= 3041 fps= 29 q=21.0 size=  115712kB time=00:01:39.20 bitrate=9555.6kbits/s speed=0.938x    frame= 3053 fps= 29 q=21.0 size=  116224kB time=00:01:39.60 bitrate=9559.3kbits/s speed=0.938x    frame= 3066 fps= 29 q=21.0 size=  116736kB time=00:01:40.03 bitrate=9559.8kbits/s speed=0.937x    frame= 3080 fps= 29 q=21.0 size=  117760kB time=00:01:40.50 bitrate=9598.9kbits/s speed=0.937x    frame= 3096 fps= 29 q=21.0 size=  118784kB time=00:01:41.03 bitrate=9631.3kbits/s speed=0.937x    frame= 3111 fps= 29 q=21.0 size=  119552kB time=00:01:41.53 bitrate=9645.8kbits/s speed=0.937x    frame= 3126 fps= 29 q=21.0 size=  120320kB time=00:01:42.03 bitrate=9660.2kbits/s speed=0.937x    frame= 3141 fps= 29 q=21.0 size=  121088kB time=00:01:42.53 bitrate=9674.4kbits/s speed=0.938x    frame= 3157 fps= 29 q=21.0 size=  121344kB time=00:01:43.06 bitrate=9644.7kbits/s speed=0.938x    frame= 3173 fps= 29 q=21.0 size=  121344kB time=00:01:43.60 bitrate=9595.1kbits/s speed=0.938x    frame= 3189 fps= 29 q=21.0 size=  121600kB time=00:01:44.13 bitrate=9566.1kbits/s speed=0.939x    frame= 3204 fps= 29 q=21.0 size=  121856kB time=00:01:44.63 bitrate=9540.4kbits/s speed=0.939x    frame= 3220 fps= 29 q=21.0 size=  121856kB time=00:01:45.16 bitrate=9492.0kbits/s speed=0.939x    frame= 3236 fps= 29 q=21.0 size=  122624kB time=00:01:45.70 bitrate=9503.6kbits/s speed=0.94x    frame= 3252 fps= 29 q=21.0 size=  122624kB time=00:01:46.23 bitrate=9455.9kbits/s speed=0.94x    frame= 3268 fps= 29 q=18.0 size=  122624kB time=00:01:46.76 bitrate=9408.7kbits/s speed=0.94x    frame= 3284 fps= 29 q=21.0 size=  122624kB time=00:01:47.30 bitrate=9361.9kbits/s speed=0.941x    frame= 3299 fps= 29 q=21.0 size=  123904kB time=00:01:47.80 bitrate=9415.8kbits/s speed=0.941x    frame= 3315 fps= 29 q=21.0 size=  124160kB time=00:01:48.33 bitrate=9388.8kbits/s speed=0.941x    frame= 3330 fps= 29 q=21.0 size=  124416kB time=00:01:48.83 bitrate=9364.9kbits/s speed=0.941x    frame= 3346 fps= 29 q=21.0 size=  124928kB time=00:01:49.36 bitrate=9357.6kbits/s speed=0.942x    frame= 3361 fps= 29 q=21.0 size=  125184kB time=00:01:49.86 bitrate=9334.1kbits/s speed=0.942x    frame= 3377 fps= 29 q=21.0 size=  125696kB time=00:01:50.40 bitrate=9327.0kbits/s speed=0.942x    frame= 3393 fps= 29 q=21.0 size=  126208kB time=00:01:50.93 bitrate=9320.0kbits/s speed=0.943x    frame= 3409 fps= 29 q=21.0 size=  126208kB time=00:01:51.46 bitrate=9275.4kbits/s speed=0.943x    frame= 3424 fps= 29 q=21.0 size=  126208kB time=00:01:51.96 bitrate=9234.0kbits/s speed=0.943x    frame= 3440 fps= 29 q=21.0 size=  126208kB time=00:01:52.50 bitrate=9190.2kbits/s speed=0.943x    frame= 3455 fps= 29 q=21.0 size=  126464kB time=00:01:53.00 bitrate=9168.1kbits/s speed=0.944x    frame= 3470 fps= 29 q=21.0 size=  126464kB time=00:01:53.50 bitrate=9127.7kbits/s speed=0.944x    frame= 3486 fps= 29 q=21.0 size=  127232kB time=00:01:54.03 bitrate=9140.2kbits/s speed=0.944x    frame= 3501 fps= 29 q=21.0 size=  128000kB time=00:01:54.53 bitrate=9155.2kbits/s speed=0.944x    frame= 3517 fps= 29 q=21.0 size=  128512kB time=00:01:55.06 bitrate=9149.2kbits/s speed=0.945x    frame= 3533 fps= 29 q=21.0 size=  129024kB time=00:01:55.60 bitrate=9143.3kbits/s speed=0.945x    frame= 3549 fps= 29 q=21.0 size=  129536kB time=00:01:56.13 bitrate=9137.4kbits/s speed=0.945x    frame= 3564 fps= 29 q=21.0 size=  129792kB time=00:01:56.63 bitrate=9116.2kbits/s speed=0.946x    frame= 3580 fps= 29 q=21.0 size=  130304kB time=00:01:57.16 bitrate=9110.5kbits/s speed=0.946x    frame= 3595 fps= 29 q=21.0 size=  130816kB time=00:01:57.66 bitrate=9107.5kbits/s speed=0.946x    frame= 3609 fps= 29 q=21.0 size=  131072kB time=00:01:58.13 bitrate=9089.2kbits/s speed=0.946x    frame= 3620 fps= 29 q=21.0 size=  131328kB time=00:01:58.50 bitrate=9078.8kbits/s speed=0.945x    frame= 3631 fps= 29 q=21.0 size=  131584kB time=00:01:58.86 bitrate=9068.4kbits/s speed=0.944x    frame= 3642 fps= 29 q=21.0 size=  131840kB time=00:01:59.23 bitrate=9058.1kbits/s speed=0.943x    frame= 3653 fps= 29 q=18.0 size=  132096kB time=00:01:59.60 bitrate=9047.9kbits/s speed=0.942x    frame= 3663 fps= 29 q=21.0 size=  132352kB time=00:01:59.93 bitrate=9040.3kbits/s speed=0.94x    frame= 3673 fps= 29 q=21.0 size=  132864kB time=00:02:00.26 bitrate=9050.1kbits/s speed=0.939x    frame= 3683 fps= 29 q=21.0 size=  133632kB time=00:02:00.60 bitrate=9077.2kbits/s speed=0.938x    frame= 3693 fps= 29 q=21.0 size=  134144kB time=00:02:00.93 bitrate=9086.9kbits/s speed=0.937x    frame= 3703 fps= 29 q=21.0 size=  134656kB time=00:02:01.26 bitrate=9096.5kbits/s speed=0.935x    frame= 3713 fps= 29 q=21.0 size=  135168kB time=00:02:01.60 bitrate=9106.1kbits/s speed=0.934x    frame= 3728 fps= 29 q=21.0 size=  135936kB time=00:02:02.10 bitrate=9120.3kbits/s speed=0.935x    frame= 3743 fps= 29 q=21.0 size=  136704kB time=00:02:02.60 bitrate=9134.4kbits/s speed=0.935x    frame= 3758 fps= 29 q=21.0 size=  137472kB time=00:02:03.10 bitrate=9148.4kbits/s speed=0.935x    frame= 3774 fps= 29 q=21.0 size=  138240kB time=00:02:03.63 bitrate=9159.8kbits/s speed=0.935x    frame= 3790 fps= 29 q=21.0 size=  138752kB time=00:02:04.16 bitrate=9154.3kbits/s speed=0.936x    frame= 3802 fps= 29 q=21.0 size=  139264kB time=00:02:04.56 bitrate=9158.6kbits/s speed=0.935x    frame= 3813 fps= 29 q=21.0 size=  139776kB time=00:02:04.93 bitrate=9165.2kbits/s speed=0.934x    frame= 3824 fps= 28 q=21.0 size=  140032kB time=00:02:05.30 bitrate=9155.2kbits/s speed=0.933x    frame= 3835 fps= 28 q=21.0 size=  140288kB time=00:02:05.66 bitrate=9145.1kbits/s speed=0.932x    frame= 3846 fps= 28 q=21.0 size=  140544kB time=00:02:06.03 bitrate=9135.2kbits/s speed=0.931x    frame= 3857 fps= 28 q=21.0 size=  140800kB time=00:02:06.40 bitrate=9125.3kbits/s speed=0.93x    frame= 3868 fps= 28 q=21.0 size=  141312kB time=00:02:06.76 bitrate=9132.0kbits/s speed=0.93x    frame= 3879 fps= 28 q=21.0 size=  142080kB time=00:02:07.13 bitrate=9155.1kbits/s speed=0.929x    frame= 3889 fps= 28 q=21.0 size=  142592kB time=00:02:07.46 bitrate=9164.1kbits/s speed=0.928x    frame= 3899 fps= 28 q=21.0 size=  143104kB time=00:02:07.80 bitrate=9173.0kbits/s speed=0.927x    frame= 3910 fps= 28 q=21.0 size=  143616kB time=00:02:08.16 bitrate=9179.5kbits/s speed=0.926x    frame= 3921 fps= 28 q=21.0 size=  144128kB time=00:02:08.53 bitrate=9185.9kbits/s speed=0.925x    frame= 3937 fps= 28 q=21.0 size=  144896kB time=00:02:09.06 bitrate=9196.7kbits/s speed=0.925x    frame= 3952 fps= 28 q=21.0 size=  145664kB time=00:02:09.56 bitrate=9209.8kbits/s speed=0.926x    frame= 3967 fps= 28 q=21.0 size=  146432kB time=00:02:10.06 bitrate=9222.7kbits/s speed=0.926x    frame= 3983 fps= 28 q=21.0 size=  147200kB time=00:02:10.60 bitrate=9233.2kbits/s speed=0.926x    frame= 3999 fps= 28 q=21.0 size=  147456kB time=00:02:11.13 bitrate=9211.7kbits/s speed=0.927x    frame= 4014 fps= 28 q=21.0 size=  147712kB time=00:02:11.63 bitrate=9192.6kbits/s speed=0.927x    frame= 4030 fps= 28 q=21.0 size=  147968kB time=00:02:12.16 bitrate=9171.4kbits/s speed=0.927x    frame= 4046 fps= 28 q=21.0 size=  148480kB time=00:02:12.70 bitrate=9166.1kbits/s speed=0.927x    frame= 4061 fps= 28 q=21.0 size=  148992kB time=00:02:13.20 bitrate=9163.2kbits/s speed=0.928x    frame= 4077 fps= 28 q=21.0 size=  149248kB time=00:02:13.73 bitrate=9142.4kbits/s speed=0.928x    frame= 4093 fps= 28 q=21.0 size=  149248kB time=00:02:14.26 bitrate=9106.1kbits/s speed=0.928x    frame= 4108 fps= 28 q=21.0 size=  149504kB time=00:02:14.76 bitrate=9087.8kbits/s speed=0.929x    frame= 4124 fps= 28 q=21.0 size=  149504kB time=00:02:15.30 bitrate=9052.0kbits/s speed=0.929x    frame= 4140 fps= 28 q=21.0 size=  149504kB time=00:02:15.83 bitrate=9016.5kbits/s speed=0.929x    frame= 4156 fps= 28 q=21.0 size=  150784kB time=00:02:16.36 bitrate=9058.1kbits/s speed=0.929x    frame= 4172 fps= 28 q=21.0 size=  151552kB time=00:02:16.90 bitrate=9068.8kbits/s speed=0.93x    frame= 4188 fps= 28 q=21.0 size=  152064kB time=00:02:17.43 bitrate=9064.1kbits/s speed=0.93x    frame= 4203 fps= 28 q=21.0 size=  152576kB time=00:02:17.93 bitrate=9061.6kbits/s speed=0.93x    frame= 4219 fps= 28 q=21.0 size=  153088kB time=00:02:18.46 bitrate=9057.0kbits/s speed=0.93x    frame= 4235 fps= 28 q=21.0 size=  153344kB time=00:02:19.00 bitrate=9037.4kbits/s speed=0.931x    frame= 4251 fps= 28 q=21.0 size=  153856kB time=00:02:19.53 bitrate=9032.9kbits/s speed=0.931x    frame= 4267 fps= 28 q=21.0 size=  154368kB time=00:02:20.06 bitrate=9028.4kbits/s speed=0.931x    frame= 4283 fps= 28 q=21.0 size=  154624kB time=00:02:20.60 bitrate=9009.1kbits/s speed=0.932x    frame= 4299 fps= 28 q=21.0 size=  154880kB time=00:02:21.13 bitrate=8989.9kbits/s speed=0.932x    frame= 4315 fps= 28 q=21.0 size=  155392kB time=00:02:21.66 bitrate=8985.7kbits/s speed=0.932x    frame= 4331 fps= 28 q=21.0 size=  155648kB time=00:02:22.20 bitrate=8966.7kbits/s speed=0.932x    frame= 4347 fps= 28 q=21.0 size=  157184kB time=00:02:22.73 bitrate=9021.4kbits/s speed=0.933x    frame= 4363 fps= 28 q=21.0 size=  157696kB time=00:02:23.26 bitrate=9017.1kbits/s speed=0.933x    frame= 4378 fps= 28 q=21.0 size=  158464kB time=00:02:23.76 bitrate=9029.5kbits/s speed=0.933x    frame= 4394 fps= 28 q=21.0 size=  159488kB time=00:02:24.30 bitrate=9054.2kbits/s speed=0.933x    frame= 4410 fps= 28 q=21.0 size=  160256kB time=00:02:24.83 bitrate=9064.3kbits/s speed=0.934x    frame= 4426 fps= 28 q=21.0 size=  160512kB time=00:02:25.36 bitrate=9045.5kbits/s speed=0.934x    frame= 4441 fps= 28 q=21.0 size=  161024kB time=00:02:25.86 bitrate=9043.2kbits/s speed=0.934x    frame= 4457 fps= 28 q=21.0 size=  161536kB time=00:02:26.40 bitrate=9039.0kbits/s speed=0.934x    frame= 4473 fps= 28 q=21.0 size=  161792kB time=00:02:26.93 bitrate=9020.4kbits/s speed=0.935x    frame= 4489 fps= 28 q=21.0 size=  162048kB time=00:02:27.46 bitrate=9002.0kbits/s speed=0.935x    frame= 4505 fps= 28 q=21.0 size=  162048kB time=00:02:28.00 bitrate=8969.6kbits/s speed=0.935x    frame= 4521 fps= 28 q=21.0 size=  162048kB time=00:02:28.53 bitrate=8937.4kbits/s speed=0.935x    frame= 4536 fps= 28 q=21.0 size=  162048kB time=00:02:29.03 bitrate=8907.4kbits/s speed=0.935x    frame= 4550 fps= 28 q=21.0 size=  162048kB time=00:02:29.50 bitrate=8879.6kbits/s speed=0.935x    frame= 4565 fps= 28 q=21.0 size=  162304kB time=00:02:30.00 bitrate=8864.0kbits/s speed=0.935x    frame= 4580 fps= 28 q=21.0 size=  162304kB time=00:02:30.50 bitrate=8834.5kbits/s speed=0.936x    frame= 4595 fps= 28 q=21.0 size=  163072kB time=00:02:31.00 bitrate=8846.9kbits/s speed=0.936x    frame= 4608 fps= 28 q=21.0 size=  164096kB time=00:02:31.43 bitrate=8877.0kbits/s speed=0.935x    frame= 4621 fps= 28 q=21.0 size=  165120kB time=00:02:31.86 bitrate=8906.9kbits/s speed=0.935x    frame= 4635 fps= 28 q=21.0 size=  166144kB time=00:02:32.33 bitrate=8934.7kbits/s speed=0.935x    frame= 4649 fps= 28 q=21.0 size=  167168kB time=00:02:32.80 bitrate=8962.3kbits/s speed=0.935x    frame= 4662 fps= 28 q=21.0 size=  167936kB time=00:02:33.23 bitrate=8978.0kbits/s speed=0.935x    frame= 4678 fps= 28 q=21.0 size=  168960kB time=00:02:33.76 bitrate=9001.4kbits/s speed=0.935x    frame= 4692 fps= 28 q=21.0 size=  169984kB time=00:02:34.23 bitrate=9028.6kbits/s speed=0.935x    frame= 4707 fps= 28 q=21.0 size=  171008kB time=00:02:34.73 bitrate=9053.6kbits/s speed=0.935x    frame= 4723 fps= 28 q=21.0 size=  172288kB time=00:02:35.26 bitrate=9090.1kbits/s speed=0.935x    frame= 4739 fps= 28 q=21.0 size=  172544kB time=00:02:35.80 bitrate=9072.4kbits/s speed=0.935x    frame= 4754 fps= 28 q=21.0 size=  173056kB time=00:02:36.30 bitrate=9070.2kbits/s speed=0.935x    frame= 4770 fps= 28 q=21.0 size=  173568kB time=00:02:36.83 bitrate=9066.1kbits/s speed=0.936x    frame= 4786 fps= 28 q=21.0 size=  174336kB time=00:02:37.36 bitrate=9075.4kbits/s speed=0.936x    frame= 4801 fps= 28 q=21.0 size=  174848kB time=00:02:37.86 bitrate=9073.2kbits/s speed=0.936x    frame= 4816 fps= 28 q=21.0 size=  175616kB time=00:02:38.36 bitrate=9084.3kbits/s speed=0.936x    frame= 4832 fps= 28 q=21.0 size=  176128kB time=00:02:38.90 bitrate=9080.2kbits/s speed=0.936x    frame= 4847 fps= 28 q=21.0 size=  177408kB time=00:02:39.40 bitrate=9117.5kbits/s speed=0.937x    frame= 4863 fps= 28 q=21.0 size=  177920kB time=00:02:39.93 bitrate=9113.3kbits/s speed=0.937x    frame= 4879 fps= 28 q=21.0 size=  178432kB time=00:02:40.46 bitrate=9109.1kbits/s speed=0.937x    frame= 4895 fps= 28 q=21.0 size=  178432kB time=00:02:41.00 bitrate=9079.0kbits/s speed=0.937x    frame= 4911 fps= 29 q=21.0 size=  178432kB time=00:02:41.53 bitrate=9049.0kbits/s speed=0.938x    frame= 4926 fps= 29 q=21.0 size=  178688kB time=00:02:42.03 bitrate=9034.0kbits/s speed=0.938x    frame= 4941 fps= 29 q=21.0 size=  178944kB time=00:02:42.53 bitrate=9019.1kbits/s speed=0.938x    frame= 4957 fps= 29 q=21.0 size=  179200kB time=00:02:43.06 bitrate=9002.5kbits/s speed=0.938x    frame= 4973 fps= 29 q=21.0 size=  179456kB time=00:02:43.60 bitrate=8986.0kbits/s speed=0.938x    frame= 4989 fps= 29 q=21.0 size=  179968kB time=00:02:44.13 bitrate=8982.3kbits/s speed=0.939x    frame= 5004 fps= 29 q=21.0 size=  179968kB time=00:02:44.63 bitrate=8955.0kbits/s speed=0.939x    frame= 5020 fps= 29 q=21.0 size=  180224kB time=00:02:45.16 bitrate=8938.8kbits/s speed=0.939x    frame= 5035 fps= 29 q=21.0 size=  181504kB time=00:02:45.66 bitrate=8975.1kbits/s speed=0.939x    frame= 5051 fps= 29 q=21.0 size=  182272kB time=00:02:46.20 bitrate=8984.2kbits/s speed=0.939x    frame= 5067 fps= 29 q=21.0 size=  183040kB time=00:02:46.73 bitrate=8993.2kbits/s speed=0.94x    frame= 5083 fps= 29 q=21.0 size=  183808kB time=00:02:47.26 bitrate=9002.1kbits/s speed=0.94x    frame= 5098 fps= 29 q=21.0 size=  184320kB time=00:02:47.76 bitrate=9000.3kbits/s speed=0.94x    frame= 5114 fps= 29 q=21.0 size=  185088kB time=00:02:48.30 bitrate=9009.2kbits/s speed=0.94x    frame= 5130 fps= 29 q=21.0 size=  185600kB time=00:02:48.83 bitrate=9005.5kbits/s speed=0.94x    frame= 5145 fps= 29 q=21.0 size=  185856kB time=00:02:49.33 bitrate=8991.3kbits/s speed=0.941x    frame= 5161 fps= 29 q=21.0 size=  186880kB time=00:02:49.86 bitrate=9012.5kbits/s speed=0.941x    frame= 5177 fps= 29 q=21.0 size=  187648kB time=00:02:50.40 bitrate=9021.2kbits/s speed=0.941x    frame= 5193 fps= 29 q=21.0 size=  187648kB time=00:02:50.93 bitrate=8993.1kbits/s speed=0.941x    frame= 5208 fps= 29 q=21.0 size=  187648kB time=00:02:51.43 bitrate=8966.8kbits/s speed=0.941x    frame= 5224 fps= 29 q=21.0 size=  187904kB time=00:02:51.96 bitrate=8951.2kbits/s speed=0.941x    frame= 5240 fps= 29 q=21.0 size=  187904kB time=00:02:52.50 bitrate=8923.5kbits/s speed=0.942x    frame= 5256 fps= 29 q=21.0 size=  187904kB time=00:02:53.03 bitrate=8896.0kbits/s speed=0.942x    frame= 5271 fps= 29 q=21.0 size=  188416kB time=00:02:53.53 bitrate=8894.6kbits/s speed=0.942x    frame= 5287 fps= 29 q=21.0 size=  189184kB time=00:02:54.06 bitrate=8903.5kbits/s speed=0.942x    frame= 5303 fps= 29 q=21.0 size=  189696kB time=00:02:54.60 bitrate=8900.3kbits/s speed=0.942x    frame= 5319 fps= 29 q=21.0 size=  190208kB time=00:02:55.13 bitrate=8897.1kbits/s speed=0.943x    frame= 5335 fps= 29 q=21.0 size=  190976kB time=00:02:55.66 bitrate=8905.9kbits/s speed=0.943x    frame= 5351 fps= 29 q=21.0 size=  192000kB time=00:02:56.20 bitrate=8926.6kbits/s speed=0.943x    frame= 5367 fps= 29 q=21.0 size=  192000kB time=00:02:56.73 bitrate=8899.6kbits/s speed=0.943x    frame= 5383 fps= 29 q=21.0 size=  192000kB time=00:02:57.26 bitrate=8872.9kbits/s speed=0.943x    frame= 5399 fps= 29 q=21.0 size=  192256kB time=00:02:57.80 bitrate=8858.0kbits/s speed=0.944x    frame= 5415 fps= 29 q=21.0 size=  193024kB time=00:02:58.33 bitrate=8866.8kbits/s speed=0.944x    frame= 5431 fps= 29 q=21.0 size=  193024kB time=00:02:58.86 bitrate=8840.4kbits/s speed=0.944x    frame= 5447 fps= 29 q=21.0 size=  193024kB time=00:02:59.40 bitrate=8814.1kbits/s speed=0.944x    frame= 5463 fps= 29 q=21.0 size=  193024kB time=00:02:59.93 bitrate=8788.0kbits/s speed=0.944x    frame= 5479 fps= 29 q=21.0 size=  193280kB time=00:03:00.46 bitrate=8773.6kbits/s speed=0.944x    frame= 5494 fps= 29 q=21.0 size=  193536kB time=00:03:00.96 bitrate=8761.0kbits/s speed=0.945x    frame= 5509 fps= 29 q=21.0 size=  195072kB time=00:03:01.46 bitrate=8806.2kbits/s speed=0.945x    frame= 5524 fps= 29 q=21.0 size=  195584kB time=00:03:01.96 bitrate=8805.0kbits/s speed=0.945x    frame= 5540 fps= 29 q=21.0 size=  196352kB time=00:03:02.50 bitrate=8813.8kbits/s speed=0.945x    frame= 5556 fps= 29 q=21.0 size=  197120kB time=00:03:03.03 bitrate=8822.5kbits/s speed=0.945x    frame= 5572 fps= 29 q=21.0 size=  197888kB time=00:03:03.56 bitrate=8831.1kbits/s speed=0.945x    frame= 5588 fps= 29 q=21.0 size=  198912kB time=00:03:04.10 bitrate=8851.1kbits/s speed=0.946x    frame= 5604 fps= 29 q=21.0 size=  199168kB time=00:03:04.63 bitrate=8836.9kbits/s speed=0.946x    frame= 5620 fps= 29 q=21.0 size=  199168kB time=00:03:05.16 bitrate=8811.4kbits/s speed=0.946x    frame= 5636 fps= 29 q=21.0 size=  199168kB time=00:03:05.70 bitrate=8786.1kbits/s speed=0.946x    frame= 5652 fps= 29 q=21.0 size=  199424kB time=00:03:06.23 bitrate=8772.2kbits/s speed=0.946x    frame= 5667 fps= 29 q=21.0 size=  199424kB time=00:03:06.73 bitrate=8748.7kbits/s speed=0.946x    frame= 5683 fps= 29 q=21.0 size=  199680kB time=00:03:07.26 bitrate=8735.0kbits/s speed=0.946x    frame= 5699 fps= 29 q=21.0 size=  199936kB time=00:03:07.80 bitrate=8721.4kbits/s speed=0.947x    frame= 5715 fps= 29 q=21.0 size=  200192kB time=00:03:08.33 bitrate=8707.8kbits/s speed=0.947x    frame= 5730 fps= 29 q=21.0 size=  200448kB time=00:03:08.83 bitrate=8695.9kbits/s speed=0.947x    frame= 5738 fps= 29 q=-1.0 Lsize=  201511kB time=00:03:11.16 bitrate=8635.3kbits/s speed=0.956x    
video:201440kB audio:0kB subtitle:0kB other streams:0kB global headers:0kB muxing overhead: 0.035047%
[libx264 @ 0x559688c8dd20] frame I:32    Avg QP:11.24  size:572339
[libx264 @ 0x559688c8dd20] frame P:1560  Avg QP:14.64  size: 79640
[libx264 @ 0x559688c8dd20] frame B:4146  Avg QP:20.40  size: 15369
[libx264 @ 0x559688c8dd20] consecutive B-frames:  2.0%  3.9%  3.5% 90.7%
[libx264 @ 0x559688c8dd20] mb I  I16..4:  7.5% 11.2% 81.4%
[libx264 @ 0x559688c8dd20] mb P  I16..4:  0.9%  3.2%  7.4%  P16..4: 15.2% 11.4% 11.1%  0.0%  0.0%    skip:50.8%
[libx264 @ 0x559688c8dd20] mb B  I16..4:  0.1%  0.2%  1.8%  B16..8: 15.5%  4.6%  2.2%  direct: 2.3%  skip:73.3%  L0:45.5% L1:49.0% BI: 5.5%
[libx264 @ 0x559688c8dd20] 8x8 transform intra:20.8% inter:46.3%
[libx264 @ 0x559688c8dd20] coded y,uvDC,uvAC intra: 75.9% 84.2% 63.1% inter: 11.8% 8.8% 2.2%
[libx264 @ 0x559688c8dd20] i16 v,h,dc,p: 50% 28% 16%  6%
[libx264 @ 0x559688c8dd20] i8 v,h,dc,ddl,ddr,vr,hd,vl,hu: 25% 30% 19%  4%  4%  4%  5%  4%  5%
[libx264 @ 0x559688c8dd20] i4 v,h,dc,ddl,ddr,vr,hd,vl,hu: 39% 31% 10%  3%  5%  3%  4%  2%  3%
[libx264 @ 0x559688c8dd20] i8c dc,h,v,p: 47% 24% 24%  5%
[libx264 @ 0x559688c8dd20] Weighted P-Frames: Y:0.6% UV:0.1%
[libx264 @ 0x559688c8dd20] ref P L0: 63.9% 11.4% 16.8%  7.8%  0.1%
[libx264 @ 0x559688c8dd20] ref B L0: 84.2% 12.0%  3.8%
[libx264 @ 0x559688c8dd20] ref B L1: 93.7%  6.3%
[libx264 @ 0x559688c8dd20] kb/s:8627.71
Exiting normally, received signal 15.
=======
frame=   22 fps=0.0 q=0.0 size=       0kB time=00:00:00.00 bitrate=N/A speed=   0x    frame=   45 fps= 44 q=0.0 size=       0kB time=00:00:00.00 bitrate=N/A speed=   0x    frame=   64 fps= 41 q=31.0 size=       0kB time=-00:00:00.03 bitrate=N/A speed=N/A    frame=   85 fps= 41 q=31.0 size=       0kB time=00:00:00.66 bitrate=   0.6kbits/s speed=0.322x    frame=  106 fps= 41 q=31.0 size=       0kB time=00:00:01.36 bitrate=   0.3kbits/s speed=0.527x    frame=  127 fps= 41 q=31.0 size=       0kB time=00:00:02.06 bitrate=   0.2kbits/s speed=0.665x    frame=  147 fps= 41 q=31.0 size=     256kB time=00:00:02.73 bitrate= 767.4kbits/s speed=0.754x    frame=  167 fps= 40 q=31.0 size=     256kB time=00:00:03.40 bitrate= 616.9kbits/s speed=0.822x    frame=  187 fps= 40 q=31.0 size=     256kB time=00:00:04.06 bitrate= 515.8kbits/s speed=0.877x    frame=  207 fps= 40 q=31.0 size=     256kB time=00:00:04.73 bitrate= 443.1kbits/s speed=0.918x    frame=  227 fps= 40 q=31.0 size=     256kB time=00:00:05.40 bitrate= 388.4kbits/s speed=0.952x    frame=  247 fps= 40 q=31.0 size=     512kB time=00:00:06.06 bitrate= 691.4kbits/s speed=0.982x    frame=  266 fps= 40 q=31.0 size=     512kB time=00:00:06.70 bitrate= 626.1kbits/s speed=   1x    frame=  284 fps= 39 q=31.0 size=     512kB time=00:00:07.30 bitrate= 574.6kbits/s speed=1.01x    frame=  303 fps= 39 q=31.0 size=     768kB time=00:00:07.93 bitrate= 793.1kbits/s speed=1.03x    frame=  321 fps= 39 q=31.0 size=    1024kB time=00:00:08.53 bitrate= 983.1kbits/s speed=1.04x    frame=  340 fps= 39 q=31.0 size=    1280kB time=00:00:09.16 bitrate=1143.9kbits/s speed=1.05x    frame=  359 fps= 39 q=31.0 size=    1536kB time=00:00:09.80 bitrate=1284.0kbits/s speed=1.06x    frame=  373 fps= 38 q=31.0 size=    1536kB time=00:00:10.26 bitrate=1225.6kbits/s speed=1.05x    frame=  385 fps= 37 q=31.0 size=    1536kB time=00:00:10.66 bitrate=1179.7kbits/s speed=1.04x    frame=  397 fps= 37 q=31.0 size=    1792kB time=00:00:11.06 bitrate=1326.5kbits/s speed=1.02x    frame=  409 fps= 36 q=31.0 size=    1792kB time=00:00:11.46 bitrate=1280.3kbits/s speed=1.01x    frame=  421 fps= 35 q=31.0 size=    1792kB time=00:00:11.86 bitrate=1237.1kbits/s speed=   1x    frame=  432 fps= 35 q=31.0 size=    2048kB time=00:00:12.23 bitrate=1371.5kbits/s speed=0.988x    frame=  443 fps= 34 q=31.0 size=    2304kB time=00:00:12.60 bitrate=1498.0kbits/s speed=0.976x    frame=  454 fps= 34 q=31.0 size=    2304kB time=00:00:12.96 bitrate=1455.6kbits/s speed=0.967x    frame=  465 fps= 33 q=31.0 size=    2560kB time=00:00:13.33 bitrate=1572.9kbits/s speed=0.957x    frame=  476 fps= 33 q=31.0 size=    2560kB time=00:00:13.70 bitrate=1530.8kbits/s speed=0.946x    frame=  486 fps= 32 q=31.0 size=    3072kB time=00:00:14.03 bitrate=1793.3kbits/s speed=0.934x    frame=  496 fps= 32 q=31.0 size=    3584kB time=00:00:14.36 bitrate=2043.6kbits/s speed=0.924x    frame=  506 fps= 31 q=31.0 size=    3840kB time=00:00:14.70 bitrate=2140.0kbits/s speed=0.913x    frame=  516 fps= 31 q=31.0 size=    4352kB time=00:00:15.03 bitrate=2371.5kbits/s speed=0.904x    frame=  526 fps= 31 q=31.0 size=    4608kB time=00:00:15.36 bitrate=2456.5kbits/s speed=0.895x    frame=  536 fps= 30 q=31.0 size=    5120kB time=00:00:15.70 bitrate=2671.5kbits/s speed=0.887x    frame=  546 fps= 30 q=31.0 size=    5376kB time=00:00:16.03 bitrate=2746.8kbits/s speed=0.879x    frame=  556 fps= 30 q=31.0 size=    5888kB time=00:00:16.36 bitrate=2947.1kbits/s speed=0.873x    frame=  566 fps= 29 q=31.0 size=    6144kB time=00:00:16.70 bitrate=3013.9kbits/s speed=0.866x    frame=  576 fps= 29 q=31.0 size=    6656kB time=00:00:17.03 bitrate=3201.1kbits/s speed=0.858x    frame=  586 fps= 29 q=31.0 size=    6912kB time=00:00:17.36 bitrate=3260.5kbits/s speed=0.852x    frame=  596 fps= 28 q=31.0 size=    7424kB time=00:00:17.70 bitrate=3436.0kbits/s speed=0.845x    frame=  606 fps= 28 q=31.0 size=    7680kB time=00:00:18.03 bitrate=3488.8kbits/s speed=0.84x    frame=  615 fps= 28 q=31.0 size=    7936kB time=00:00:18.33 bitrate=3546.1kbits/s speed=0.833x    frame=  624 fps= 28 q=31.0 size=    8448kB time=00:00:18.63 bitrate=3714.1kbits/s speed=0.826x    frame=  633 fps= 27 q=31.0 size=    8704kB time=00:00:18.93 bitrate=3766.0kbits/s speed=0.82x    frame=  642 fps= 27 q=31.0 size=    8960kB time=00:00:19.23 bitrate=3816.3kbits/s speed=0.813x    frame=  651 fps= 27 q=31.0 size=    9472kB time=00:00:19.53 bitrate=3972.4kbits/s speed=0.808x    frame=  660 fps= 27 q=31.0 size=    9728kB time=00:00:19.83 bitrate=4018.1kbits/s speed=0.802x    frame=  669 fps= 26 q=31.0 size=    9984kB time=00:00:20.13 bitrate=4062.4kbits/s speed=0.796x    frame=  678 fps= 26 q=31.0 size=   10496kB time=00:00:20.43 bitrate=4208.0kbits/s speed=0.791x    frame=  687 fps= 26 q=31.0 size=   10752kB time=00:00:20.73 bitrate=4248.3kbits/s speed=0.787x    frame=  696 fps= 26 q=31.0 size=   11008kB time=00:00:21.03 bitrate=4287.4kbits/s speed=0.783x    frame=  706 fps= 26 q=31.0 size=   11264kB time=00:00:21.36 bitrate=4318.6kbits/s speed=0.779x    frame=  716 fps= 26 q=31.0 size=   11520kB time=00:00:21.70 bitrate=4348.9kbits/s speed=0.776x    frame=  726 fps= 25 q=31.0 size=   11520kB time=00:00:22.03 bitrate=4283.1kbits/s speed=0.772x    frame=  735 fps= 25 q=31.0 size=   11776kB time=00:00:22.33 bitrate=4319.5kbits/s speed=0.769x    frame=  746 fps= 25 q=31.0 size=   12032kB time=00:00:22.70 bitrate=4342.1kbits/s speed=0.767x    frame=  757 fps= 25 q=31.0 size=   12288kB time=00:00:23.06 bitrate=4364.0kbits/s speed=0.766x    frame=  768 fps= 25 q=31.0 size=   12288kB time=00:00:23.43 bitrate=4295.7kbits/s speed=0.765x    frame=  779 fps= 25 q=31.0 size=   12544kB time=00:00:23.80 bitrate=4317.7kbits/s speed=0.764x    frame=  789 fps= 25 q=31.0 size=   12800kB time=00:00:24.13 bitrate=4344.9kbits/s speed=0.762x    frame=  799 fps= 25 q=31.0 size=   13056kB time=00:00:24.46 bitrate=4371.5kbits/s speed=0.76x    frame=  810 fps= 25 q=31.0 size=   13568kB time=00:00:24.83 bitrate=4475.8kbits/s speed=0.759x    frame=  821 fps= 25 q=31.0 size=   13824kB time=00:00:25.20 bitrate=4493.9kbits/s speed=0.758x    frame=  833 fps= 25 q=31.0 size=   14336kB time=00:00:25.60 bitrate=4587.5kbits/s speed=0.758x    frame=  843 fps= 25 q=31.0 size=   14592kB time=00:00:25.93 bitrate=4609.4kbits/s speed=0.756x    frame=  853 fps= 25 q=31.0 size=   14848kB time=00:00:26.26 bitrate=4630.8kbits/s speed=0.754x    frame=  862 fps= 24 q=31.0 size=   15360kB time=00:00:26.56 bitrate=4736.4kbits/s speed=0.752x    frame=  871 fps= 24 q=31.0 size=   15616kB time=00:00:26.86 bitrate=4761.5kbits/s speed=0.749x    frame=  880 fps= 24 q=31.0 size=   15872kB time=00:00:27.16 bitrate=4786.1kbits/s speed=0.746x    frame=  889 fps= 24 q=31.0 size=   15872kB time=00:00:27.46 bitrate=4733.9kbits/s speed=0.743x    frame=  898 fps= 24 q=31.0 size=   16128kB time=00:00:27.76 bitrate=4758.2kbits/s speed=0.741x    frame=  907 fps= 24 q=31.0 size=   16640kB time=00:00:28.06 bitrate=4856.8kbits/s speed=0.739x    frame=  916 fps= 24 q=31.0 size=   17152kB time=00:00:28.36 bitrate=4953.3kbits/s speed=0.736x    frame=  925 fps= 24 q=31.0 size=   17408kB time=00:00:28.66 bitrate=4974.6kbits/s speed=0.733x    frame=  934 fps= 24 q=31.0 size=   17920kB time=00:00:28.96 bitrate=5067.9kbits/s speed=0.73x    frame=  943 fps= 23 q=31.0 size=   18176kB time=00:00:29.26 bitrate=5087.6kbits/s speed=0.728x    frame=  952 fps= 23 q=31.0 size=   18688kB time=00:00:29.56 bitrate=5177.9kbits/s speed=0.726x    frame=  961 fps= 23 q=31.0 size=   18944kB time=00:00:29.86 bitrate=5196.1kbits/s speed=0.723x    frame=  970 fps= 23 q=31.0 size=   19456kB time=00:00:30.16 bitrate=5283.4kbits/s speed=0.722x    frame=  979 fps= 23 q=31.0 size=   19712kB time=00:00:30.46 bitrate=5300.2kbits/s speed=0.72x    frame=  988 fps= 23 q=31.0 size=   19968kB time=00:00:30.76 bitrate=5316.7kbits/s speed=0.718x    frame=  997 fps= 23 q=31.0 size=   20480kB time=00:00:31.06 bitrate=5400.4kbits/s speed=0.716x    frame=  998 fps= 23 q=31.0 size=   20480kB time=00:00:31.10 bitrate=5394.6kbits/s speed=0.708x    frame=  998 fps= 22 q=-1.0 Lsize=   22681kB time=00:00:33.16 bitrate=5602.1kbits/s speed=0.739x    
video:22668kB audio:0kB subtitle:0kB other streams:0kB global headers:0kB muxing overhead: 0.056901%
[libx264 @ 0x55f66d472d20] frame I:6     Avg QP:20.13  size:114978
[libx264 @ 0x55f66d472d20] frame P:252   Avg QP:26.91  size: 37002
[libx264 @ 0x55f66d472d20] frame B:740   Avg QP:30.06  size: 17834
[libx264 @ 0x55f66d472d20] consecutive B-frames:  0.9%  0.6%  0.3% 98.2%
[libx264 @ 0x55f66d472d20] mb I  I16..4: 25.0% 18.7% 56.3%
[libx264 @ 0x55f66d472d20] mb P  I16..4:  2.5%  6.5%  9.0%  P16..4: 20.1%  9.6%  5.3%  0.0%  0.0%    skip:47.0%
[libx264 @ 0x55f66d472d20] mb B  I16..4:  0.5%  0.8%  2.0%  B16..8: 20.5%  7.6%  2.1%  direct: 4.6%  skip:61.9%  L0:47.5% L1:47.3% BI: 5.2%
[libx264 @ 0x55f66d472d20] 8x8 transform intra:31.2% inter:52.5%
[libx264 @ 0x55f66d472d20] coded y,uvDC,uvAC intra: 52.7% 58.2% 26.1% inter: 13.4% 7.4% 1.0%
[libx264 @ 0x55f66d472d20] i16 v,h,dc,p: 63% 20% 11%  6%
[libx264 @ 0x55f66d472d20] i8 v,h,dc,ddl,ddr,vr,hd,vl,hu: 22% 26% 27%  8%  4%  3%  6%  2%  2%
[libx264 @ 0x55f66d472d20] i4 v,h,dc,ddl,ddr,vr,hd,vl,hu: 49% 27% 14%  1%  2%  2%  3%  1%  1%
[libx264 @ 0x55f66d472d20] i8c dc,h,v,p: 59% 17% 23%  2%
[libx264 @ 0x55f66d472d20] Weighted P-Frames: Y:0.0% UV:0.0%
[libx264 @ 0x55f66d472d20] ref P L0: 45.1% 13.0% 25.8% 16.2%
[libx264 @ 0x55f66d472d20] ref B L0: 73.5% 19.6%  6.9%
[libx264 @ 0x55f66d472d20] ref B L1: 88.3% 11.7%
[libx264 @ 0x55f66d472d20] kb/s:5581.92
>>>>>>> e80a46b8e6a6127897287ae6451a2f0aa3e58167
